:SAMPLES-PER-SECOND 30
:FULLY-SPECIFIED
:DEGREES
703
root  -40.1095 38.3709 1.08448 172.892 -41.641 -176.936
RightUpLeg  -18.0091 -12.31 8.99305
RightLeg  25.1438 -6.75635 -1.69103
RightFoot  -3.47093 0.807443 -12.0158
RightToes  -4.65661e-009 0 -3.6325e-017
Spine  7.61919 -0.171015 15.0076
Spine1  10.1142 1.7852 -1.44506
HEad  -9.34207 -16.9268 4.91066
LeftShoulder1  -0.105987 3.78575 -31.4752
LeftArm  2.64682 2.26078 -45.4504
LeftForeArm  36.399 -12.1169 -8.61467
LeftHand  -0.0665318 6.6968 -2.35976
RightShoulder  -0.56941 -5.19782 26.8624
RightArm  11.3004 22.0199 51.0965
RightForeArm  5.52736 23.9797 4.84024
RightHand  -0.420903 7.22714 -4.22145
LeftUpLeg  -12.935 17.5844 4.93695
LeftLeg  67.3563 -1.78434 -3.97056
LeftFoot  4.12121 1.03468 -7.81036
LeftToes  9.86798e-010 -1.28139e-010 1.4132e-011
704
root  -40.8234 38.5559 0.831433 173.853 -39.9666 -177.717
RightUpLeg  -17.1742 -11.4201 7.89359
RightLeg  24.9966 -5.83883 -1.26481
RightFoot  -4.06072 0.685665 -11.1651
RightToes  -4.65661e-009 0 -3.6325e-017
Spine  8.22985 0.0192979 15.256
Spine1  9.65161 2.32258 -2.55185
HEad  -9.59266 -17.1305 5.17815
LeftShoulder1  -0.0733852 3.69886 -31.4236
LeftArm  0.659941 4.26794 -44.9744
LeftForeArm  35.519 -11.2808 -8.62247
LeftHand  -0.0554933 6.53247 -1.81736
RightShoulder  -0.511763 -5.04634 26.305
RightArm  11.1621 26.1996 52.8722
RightForeArm  6.46075 24.6437 4.94006
RightHand  -0.491071 7.43235 -4.79793
LeftUpLeg  -16.6438 16.2062 5.21593
LeftLeg  67.4244 -1.77038 -3.9661
LeftFoot  2.65837 0.811696 -6.72783
LeftToes  9.86798e-010 -1.28139e-010 1.4132e-011
705
root  -41.5413 38.7941 0.611184 174.834 -38.0767 -178.565
RightUpLeg  -16.0717 -10.1875 6.56179
RightLeg  24.1658 -5.09185 -0.649315
RightFoot  -4.23173 0.625203 -10.483
RightToes  -4.65661e-009 0 -3.6325e-017
Spine  9.09971 0.356067 15.4153
Spine1  8.93021 2.92014 -3.53181
HEad  -9.98307 -16.9527 4.98311
LeftShoulder1  -0.13709 3.86502 -31.8502
LeftArm  -1.509 5.96843 -44.5547
LeftForeArm  35.8932 -11.0002 -8.21845
LeftHand  -0.0654094 6.87805 -1.94628
RightShoulder  -0.38794 -4.72434 24.8522
RightArm  10.0757 29.4283 54.5811
RightForeArm  6.93483 25.8414 5.18207
RightHand  -0.503094 7.47474 -4.89267
LeftUpLeg  -19.1653 14.3963 5.48559
LeftLeg  64.12 -1.34399 -2.42495
LeftFoot  0.118089 0.551731 -5.49762
LeftToes  9.86798e-010 -1.28139e-010 1.4132e-011
706
root  -42.2096 39.0263 0.415315 175.914 -36.1265 -179.485
RightUpLeg  -15.1598 -9.44983 5.25274
RightLeg  23.1881 -3.84224 0.0345217
RightFoot  -4.28372 0.581592 -9.86795
RightToes  -4.65661e-009 0 -3.6325e-017
Spine  9.78642 0.848066 15.7302
Spine1  8.56781 3.78784 -5.07035
HEad  -10.7988 -17.3413 5.16911
LeftShoulder1  -0.0830139 3.72384 -31.5999
LeftArm  -2.13648 6.92887 -44.4035
LeftForeArm  35.9997 -10.9554 -8.06142
LeftHand  -0.0748909 6.96234 -2.47744
RightShoulder  -0.386853 -4.73571 24.4351
RightArm  8.73191 32.941 55.0896
RightForeArm  8.02361 27.4752 5.49704
RightHand  -0.430529 7.73005 -4.15969
LeftUpLeg  -20.4877 12.2699 5.82972
LeftLeg  57.6528 -0.389648 -0.182695
LeftFoot  -1.77659 0.36137 -4.21005
LeftToes  9.86798e-010 -1.28139e-010 1.4132e-011
707
root  -42.8379 39.2497 0.222129 177.049 -34.0678 179.802
RightUpLeg  -14.5264 -8.8296 4.20607
RightLeg  22.0515 -2.34337 0.677323
RightFoot  -4.14266 0.566028 -9.41082
RightToes  -4.65661e-009 0 -3.6325e-017
Spine  10.4766 1.41958 15.9115
Spine1  8.10061 4.64299 -6.47981
HEad  -11.7555 -17.8448 5.41372
LeftShoulder1  -0.00116346 3.50725 -31.4461
LeftArm  -1.39878 7.64513 -43.9878
LeftForeArm  34.7333 -11.1933 -8.14875
LeftHand  -0.0611648 7.04095 -1.46918
RightShoulder  -0.359052 -4.66975 23.7733
RightArm  7.91419 36.0617 55.6352
RightForeArm  6.9922 28.9697 5.9056
RightHand  -0.577517 8.17864 -5.31161
LeftUpLeg  -20.5708 9.81499 6.57284
LeftLeg  48.1312 0.505132 1.06201
LeftFoot  -2.67448 0.253027 -3.11637
LeftToes  9.86798e-010 -1.28139e-010 1.4132e-011
708
root  -43.4783 39.4344 0.0633523 178.088 -32.0742 179.128
RightUpLeg  -14.1126 -8.69302 3.14965
RightLeg  21.2619 -0.396874 1.24923
RightFoot  -4.14802 0.536059 -8.94993
RightToes  -4.65661e-009 0 -3.6325e-017
Spine  11.0776 1.65042 15.8781
Spine1  7.84847 5.20936 -8.10907
HEad  -12.6079 -17.3208 5.49835
LeftShoulder1  -0.00389163 3.51367 -31.0849
LeftArm  -0.42398 8.78202 -43.7342
LeftForeArm  33.4708 -12.5948 -7.6676
LeftHand  -0.065276 6.92335 -1.86529
RightShoulder  -0.296417 -4.46837 23.5883
RightArm  7.54788 39.408 56.0136
RightForeArm  6.94562 30.0209 6.16341
RightHand  -0.593871 8.90918 -5.18959
LeftUpLeg  -19.0723 6.55539 7.44568
LeftLeg  35.8697 0.308336 0.607904
LeftFoot  -3.37732 0.202511 -2.613
LeftToes  9.86798e-010 -1.28139e-010 1.4132e-011
